:SAMPLES-PER-SECOND 30
:FULLY-SPECIFIED
:DEGREES
241
root  0.700047 37.3641 26.1561 -171.695 3.75502 173.57
RightUpLeg  -19.2808 -9.89701 -26.9257
RightLeg  23.3062 -11.8885 -5.77645
RightFoot  1.83628 -3.38732 28.8491
RightToes  -1.74624e-010 0 -3.6325e-017
Spine  18.0565 -0.646713 -2.77981
Spine1  4.82892 -0.458129 -3.25743
HEad  -19.7328 5.80973 5.39494
LeftShoulder1  0.567777 0.708056 -13.2894
LeftArm  5.38546 -6.29042 -59.6217
LeftForeArm  121.321 -71.6041 -143.796
LeftHand  -1.81942 -1.81328 29.0153
RightShoulder  0.492079 0.0554122 6.12296
RightArm  -34.1401 -8.42844 32.4057
RightForeArm  -18.5985 25.5879 6.37649
RightHand  -3.34206 6.63834 -31.7515
LeftUpLeg  -19.8014 -5.02759 18.5802
LeftLeg  16.7871 -0.1632 0.805239
LeftFoot  1.83646 2.53901 -21.8909
LeftToes  -5.82109e-011 1.10366e-010 -8.03124e-011
242
root  1.38046 36.9557 26.8517 -173.259 5.14273 172.947
RightUpLeg  -22.6178 -7.09766 -26.9198
RightLeg  29.5254 -11.4328 -7.1224
RightFoot  -1.00587 -2.59731 28.1424
RightToes  -1.74624e-010 0 -3.6325e-017
Spine  21.2873 -1.28976 -1.21237
Spine1  4.9895 -0.278201 -5.87951
HEad  -19.4446 8.07303 5.00758
LeftShoulder1  0.722086 0.0131785 -13.7107
LeftArm  4.85779 0.994422 -56.6582
LeftForeArm  122.574 -71.0619 -145.065
LeftHand  -1.76922 -1.73407 28.5508
RightShoulder  0.237878 -0.85749 0.653282
RightArm  -34.6564 7.36765 27.2264
RightForeArm  -13.5552 28.3692 6.8086
RightHand  -3.23408 6.6732 -30.7026
LeftUpLeg  -19.5363 -3.37653 17.5827
LeftLeg  20.5492 -0.00631127 0.266664
LeftFoot  -1.50697 2.10747 -24.113
LeftToes  -5.82109e-011 1.10366e-010 -8.03124e-011
243
root  1.8841 36.511 27.5005 -174.617 6.79311 172.684
RightUpLeg  -25.7048 -5.57047 -26.7945
RightLeg  34.3436 -8.99298 -6.79269
RightFoot  -2.85528 -2.21128 28.9559
RightToes  -1.74624e-010 0 -3.6325e-017
Spine  24.3389 -2.72848 1.89896
Spine1  5.35308 -0.127084 -9.86102
HEad  -19.6358 10.5791 3.08682
LeftShoulder1  0.89686 -0.791867 -13.932
LeftArm  5.25495 7.575 -53.335
LeftForeArm  121.44 -71.9286 -143.1
LeftHand  -1.80726 -1.83333 28.7535
RightShoulder  0.0649569 -1.76203 -5.63946
RightArm  -35.8775 19.5774 20.901
RightForeArm  -10.3127 38.9335 9.79389
RightHand  -3.13114 6.73111 -29.6506
LeftUpLeg  -19.5898 -1.55361 16.6544
LeftLeg  25.217 0.975123 0.868998
LeftFoot  -5.11608 1.40104 -24.6959
LeftToes  -5.82109e-011 1.10366e-010 -8.03124e-011
244
root  2.23116 36.1774 28.0122 -174.54 7.78549 172.724
RightUpLeg  -28.4566 -6.12969 -26.1959
RightLeg  36.8735 -6.6816 -5.61885
RightFoot  -4.2831 -1.89505 29.5963
RightToes  -1.74624e-010 0 -3.6325e-017
Spine  26.122 -4.28192 6.36486
Spine1  5.90798 0.440505 -13.8944
HEad  -21.2338 11.684 0.465604
LeftShoulder1  1.07441 -1.63403 -13.97
LeftArm  6.58811 12.4389 -51.4988
LeftForeArm  118.815 -73.4089 -139.21
LeftHand  -1.84241 -1.98705 28.7065
RightShoulder  0.00163234 -3.23048 -11.0651
RightArm  -41.036 25.3222 11.6543
RightForeArm  -1.71597 54.7241 16.4858
RightHand  -2.84782 6.74632 -27.0044
LeftUpLeg  -21.1799 -1.38553 16.2089
LeftLeg  29.7469 4.17726 2.93696
LeftFoot  -7.47866 0.794649 -21.9902
LeftToes  -5.82109e-011 1.10366e-010 -8.03124e-011
245
root  2.49194 35.9759 28.3842 -173.386 8.12531 172.821
RightUpLeg  -30.9809 -7.44218 -25.4138
RightLeg  38.0916 -5.52672 -4.89641
RightFoot  -5.1925 -1.64731 29.3821
RightToes  -1.74624e-010 0 -3.6325e-017
Spine  26.6594 -5.0232 9.61972
Spine1  6.59476 1.08443 -15.5786
HEad  -23.1262 11.7505 -1.73484
LeftShoulder1  1.20885 -2.22169 -14.1938
LeftArm  7.48013 16.3422 -51.5244
LeftForeArm  118.197 -74.1328 -137.12
LeftHand  -1.86976 -2.26492 28.1071
RightShoulder  0.0623545 -5.13687 -13.9493
RightArm  -49.7776 28.1466 3.12523
RightForeArm  11.5922 66.3896 25.5607
RightHand  -2.3224 6.55634 -22.6234
LeftUpLeg  -23.5225 -1.87726 15.9151
LeftLeg  33.3627 6.56014 4.97662
LeftFoot  -8.6806 0.49757 -19.155
LeftToes  -5.82109e-011 1.10366e-010 -8.03124e-011
246
root  2.71459 35.8421 28.6619 -172.452 7.96938 172.868
RightUpLeg  -32.8055 -8.24094 -24.8789
RightLeg  39.1356 -4.91227 -4.54231
RightFoot  -5.53243 -1.55934 29.364
RightToes  -1.74624e-010 0 -3.6325e-017
Spine  26.7025 -4.8918 10.1458
Spine1  7.36783 1.25059 -14.6033
HEad  -24.0084 11.6941 -2.94164
LeftShoulder1  1.3106 -2.56348 -14.7314
LeftArm  7.74895 19.6048 -52.1961
LeftForeArm  120.417 -73.8816 -138.208
LeftHand  -1.94609 -2.66586 27.8121
RightShoulder  0.114741 -6.50524 -13.9218
RightArm  -56.8883 31.6355 0.655077
RightForeArm  17.7554 69.0341 29.4876
RightHand  -2.25332 6.74898 -21.5967
LeftUpLeg  -25.1229 -2.31049 15.8293
LeftLeg  35.9276 6.50584 5.40195
LeftFoot  -9.37506 0.380656 -18.827
LeftToes  -5.82109e-011 1.10366e-010 -8.03124e-011
247
root  2.87741 35.7697 28.8623 -172.424 7.19608 172.92
RightUpLeg  -33.1642 -8.7331 -24.6533
RightLeg  39.9483 -4.48368 -4.29097
RightFoot  -5.64459 -1.5636 29.9833
RightToes  -1.74624e-010 0 -3.6325e-017
Spine  26.4172 -4.5457 9.12653
Spine1  8.54187 1.00264 -12.8351
HEad  -23.8733 11.3815 -3.32436
LeftShoulder1  1.40164 -2.84093 -15.2701
LeftArm  8.89939 21.0411 -51.9468
LeftForeArm  121.585 -73.5931 -139.193
LeftHand  -1.99663 -2.86526 27.8509
RightShoulder  0.0632813 -6.34148 -11.9696
RightArm  -58.5614 33.9483 5.47623
RightForeArm  12.9957 66.3056 25.7208
RightHand  -2.58659 7.07928 -24.0606
LeftUpLeg  -25.44 -2.56724 15.8939
LeftLeg  37.7061 5.32468 4.78166
LeftFoot  -9.65943 0.343102 -19.2928
LeftToes  -5.82109e-011 1.10366e-010 -8.03124e-011
